<svg id="Layer_1" data-name="Layer 1" xmlns="http://www.w3.org/2000/svg" viewBox="0 0 500 500"><defs><style>.cls-3{fill:#2d2c28}.cls-6{fill:#d4b366}.cls-11{fill:#2b2a27}.cls-12{fill:#2e2d28}.cls-13{fill:#2c2b28}.cls-14{fill:#2e2c28}</style></defs><path d="M493.76 250.09c0 134.72-109.25 243.72-244.22 243.69C114.88 493.75 5.93 384.35 6.24 249c.31-134.44 110-243.6 245.3-242.78C385 7 493.72 115.43 493.76 250.09Zm-16.9-.24c-.13-125.59-100.6-224.63-221.73-227.13C125 20 25.05 123.46 22.68 244.57c-2.55 130 100.92 230 222.27 232.31C374.63 479.3 477 374.86 476.86 249.85Z" fill="#c48792"/><path d="M476.86 249.85c.16 125-102.23 229.45-231.91 227C123.6 474.61 20.13 374.59 22.68 244.57 25.05 123.46 125 20 255.13 22.72c121.13 2.5 221.6 101.54 221.73 227.13ZM292.36 71.44c-3.36.4-7.72.83-12.05 1.48a67.47 67.47 0 0 0-19.13 5.5c-9.5 4.49-16.12 12.2-22.48 20-8.49 10.37-14 22.42-17.7 35.34-1.72 5.95-3.31 11.79-3.09 18 .16 4.39 1.37 8.64.89 13.16-.36 3.37.56 6.89 1.06 10.32.89 6.14 1.83 12.26 2.91 18.37.34 1.89 1.47 3.65 1.78 5.55.72 4.48 1.06 9 1.76 13.49.78 5 1.81 10 2.72 14.93.36 2-.51 3-2.56 3.08-1.06 0-2.14-.08-3.19 0a2.84 2.84 0 0 0-1.71.84c-2.71 3.52-4.43 7.37-4.09 12 .49 6.5.81 13 1.24 19.51.08 1.35.47 2.7.42 4-.1 3.31 2.1 7-1.65 9.75-.34.24-.44.78-.68 1.17a10.06 10.06 0 0 1-5.6 4.69c-8.2 2.7-16.21 5.68-23 11.45a50.07 50.07 0 0 0-14.78 21.48c-1.06 2.92-.92 6.26-1.71 9.31-1 4-2.12 8-1.92 12.24 0 1-.35 1.95-.35 2.93 0 5-.3 10 .14 14.92.31 3.49.94 6.72-1.09 10-2.66 4.29-4.9 8.85-7.44 13.23-4.23 7.3.15 15.53 8.58 16a3.75 3.75 0 0 1 1.12.16c3.51 1.41 6.84.57 10.18-.65 5.46-2 10.92-4 16.41-6 2.34-.83 4.05.28 4.41 2.69 1 6.71 1.94 13.44 3 20.16.82 5.35 2.49 10.25 7.16 13.65 2 1.42 3.81 2.75 6.38 2.45 2-.23 4-.19 5.88-.58 4.7-.94 9-3.06 11.17-7.39a55.46 55.46 0 0 0 4.67-13 12.29 12.29 0 0 1 4.79-7.77c4.07-3.07 8.45-5.19 13.5-5.47a114.06 114.06 0 0 1 27.23 1.76c3.58.67 6.73 2.3 8.6 5.46s3.12 6.57 4.74 9.82c2.3 4.6 4.49 9.26 7.12 13.66a6.32 6.32 0 0 0 7.2 2.79c6.88-2.4 12.76-6.14 14.33-14.22 1.39-7.21.86-14.56 2.13-21.8 1.13-6.44 1.74-13 5.34-18.63 6-9.43 5.16-19.83 4.09-30.06-.58-5.64-2.9-11.1-4.32-16.67-.86-3.35-1.32-6.81-2.27-10.13-.56-1.92-1.86-3.61-2.61-5.49-1.59-4-2.94-8.09-4.59-12.06-1.16-2.8-2.78-5.4-3.91-8.2-.53-1.31-1-3.16-.47-4.31 2.95-6.63 4.74-13.38 4.07-20.72s-.68-14.61-1.83-21.78c-.52-3.28 1.18-7.13-1.9-10-.33-.31-.26-1.17-.21-1.77.21-2.33.38-4.67.75-7 1-6.33 2.59-12.6 3.16-19 .55-6.15 3.26-11.6 4.54-17.48 1.11-5.08 2.22-10.16 3.4-15.23s.45-10.07 2.28-15c1-2.77.87-6 1.31-9 .83-5.67 2.14-11.32 2.45-17 .32-6-.28-12.15-.49-18.23a4 4 0 0 0-.27-1.32c-2.1-5.77-4.05-11.6-8.06-16.44-.92-1.11-1.62-2.39-2.43-3.59C319.46 79 308.31 72 292.36 71.44Z" fill="#cc98a1"/><path class="cls-3" d="M292.36 71.44c15.95.58 27.1 7.51 35.32 19.64.81 1.2 1.51 2.48 2.43 3.59 4 4.84 6 10.67 8.06 16.44a4 4 0 0 1 .27 1.32c.21 6.08.81 12.18.49 18.23-.31 5.7-1.62 11.35-2.45 17-.44 3-.27 6.21-1.31 9-1.83 4.89-1.13 10-2.28 15s-2.29 10.15-3.4 15.23c-1.28 5.88-4 11.33-4.54 17.48-.57 6.37-2.12 12.64-3.16 19-.37 2.3-.54 4.64-.75 7-.05.6-.12 1.46.21 1.77 3.08 2.84 1.38 6.69 1.9 10 1.15 7.17 1.17 14.52 1.83 21.78s-1.12 14.09-4.07 20.72c-.51 1.15-.06 3 .47 4.31 1.13 2.8 2.75 5.4 3.91 8.2 1.65 4 3 8.06 4.59 12.06.75 1.88 2.05 3.57 2.61 5.49.95 3.32 1.41 6.78 2.27 10.13 1.42 5.57 3.74 11 4.32 16.67 1.07 10.1 1.92 20.5-4.08 29.93-3.6 5.63-4.21 12.19-5.34 18.63-1.27 7.24-.74 14.59-2.13 21.8-1.57 8.08-7.45 11.82-14.33 14.22a6.32 6.32 0 0 1-7.2-2.79c-2.63-4.4-4.82-9.06-7.12-13.66-1.62-3.25-2.9-6.7-4.74-9.82s-5-4.79-8.6-5.46a114.06 114.06 0 0 0-27.23-1.76c-5.05.28-9.43 2.4-13.5 5.47a12.29 12.29 0 0 0-4.79 7.77 55.46 55.46 0 0 1-4.67 13c-2.21 4.33-6.47 6.45-11.17 7.39-1.92.39-3.92.35-5.88.58-2.57.3-4.43-1-6.38-2.45-4.67-3.4-6.34-8.3-7.16-13.65-1-6.72-2-13.45-3-20.16-.36-2.41-2.07-3.52-4.41-2.69-5.49 1.93-10.95 3.95-16.41 6-3.34 1.22-6.67 2.06-10.18.65a3.75 3.75 0 0 0-1.12-.16c-8.43-.48-12.81-8.71-8.58-16 2.54-4.38 4.78-8.94 7.44-13.23 2-3.28 1.4-6.51 1.09-10-.44-4.94-.17-9.95-.14-14.92 0-1 .4-2 .35-2.93-.2-4.22.88-8.21 1.92-12.24.79-3 .65-6.39 1.71-9.31a50.07 50.07 0 0 1 14.78-21.48c6.76-5.77 14.77-8.75 23-11.45a10.06 10.06 0 0 0 5.6-4.69c.24-.39.34-.93.68-1.17 3.75-2.72 1.55-6.44 1.65-9.75.05-1.34-.34-2.69-.42-4-.43-6.5-.75-13-1.24-19.51-.34-4.62 1.38-8.47 4.09-12a2.84 2.84 0 0 1 1.71-.84c1.05-.13 2.13 0 3.19 0 2.05-.08 2.92-1.12 2.56-3.08-.91-5-1.94-9.93-2.72-14.93-.7-4.48-1-9-1.76-13.49-.31-1.9-1.44-3.66-1.78-5.55-1.08-6.11-2-12.23-2.91-18.37-.5-3.43-1.42-6.95-1.06-10.32.48-4.52-.73-8.77-.89-13.16-.22-6.25 1.37-12.09 3.09-18 3.72-12.92 9.21-25 17.7-35.34 6.36-7.78 13-15.49 22.48-20a67.47 67.47 0 0 1 19.13-5.5c4.33-.81 8.69-1.24 12.05-1.64Zm-71.2 207c-1.55 2-2.67 3.27-3.66 4.67a65.62 65.62 0 0 0-4.14 6.25c-3.93 7.23-7.91 14.45-11.52 21.85a59.53 59.53 0 0 0-3.59 10.7 44.8 44.8 0 0 0-1.94 10c-.15 4.34.49 8.71.8 13.06a153.84 153.84 0 0 0 4.23 26c1.28 5.18 3 10.25 4.11 15.45a91.26 91.26 0 0 1 1.55 11.96c.47 5.76 1 11.47 2.94 17 1.35 3.8 3.51 6.76 7.28 8.27 5.2 2.08 14.58-1.65 16.77-6.86a51.12 51.12 0 0 0 3.62-11.47 16 16 0 0 1 7.12-11.14c6.78-4.66 14.31-5.87 22.34-4.72a18.48 18.48 0 0 0 4.31.33c6-.61 11.66.8 17.36 2.1 3.9.89 7.48 2.94 9.33 6.4 2.82 5.26 4.92 10.91 7.22 16.44 1.24 3 2.75 5.76 5.44 7.71 1.46 1.05 3 1.5 4.63.37 2.67-1.85 5.35-3.69 8-5.57a2.32 2.32 0 0 0 1-1.22 82 82 0 0 0 1.37-9.18c.28-4.74 0-9.52.33-14.27a63 63 0 0 1 1.47-9.44c.94-4.3 1.53-8.82 3.37-12.72 1.54-3.26 3.27-6.15 3.91-9.92.92-5.42 1.32-10.78.26-16.07-1.63-8.11-3.51-16.18-5.8-24.13a161.26 161.26 0 0 0-10.47-26.83c-.52-1-1-2.09-1.55-3.27-.54.51-.9.79-1.2 1.12-2.57 2.9-5.11 5.83-7.7 8.72-4.57 5.1-10.77 7.78-16.46 11.27-4.61 2.82-9.75 3.12-14.81 3.95a7.93 7.93 0 0 1-2.95-.16c-6.27-1.36-12.53-2.8-18.8-4.18-9.85-2.17-17.56-8.13-25.12-14.3a9.12 9.12 0 0 1-2-3.23c-2.31-4.73-4.49-9.48-7.05-14.96Zm95.93-47c.14-1.52.15-2.42.32-3.3 2-10.79 3.14-21.73 6.26-32.33a162.1 162.1 0 0 0 3.85-16.62c1.74-9.45 4.21-18.76 5.37-28.33.8-6.53 1.81-13 2.67-19.56a16.22 16.22 0 0 0-.05-3.19c-.22-3.48-.48-7-.71-10.43a19.58 19.58 0 0 0-.24-3.85c-1.09-4.11-1.58-8.38-4.76-11.79-2.56-2.75-4.45-6.11-6.74-9.12-3.06-4-7.74-3.87-12-4.07-3.11-.16-6.3.64-9.42 1.19-5.9 1.05-11.94 1.67-17.6 3.47-10.81 3.41-20.81 8.51-28.75 16.95a100.78 100.78 0 0 0-19.58 31.1c-2.63 6.4-4.09 13.3-5.84 20-2.57 9.88-2.51 20-2.24 30.12.06 2.12.41 4.23.61 6.34.5 5.36.92 10.73 1.52 16.08.56 5.05 1.32 10.08 2 15.12.36 2.76 1.18 5.3 3.51 7.19.36-.23.65-.47 1-.64 6.05-3 11.94-6.35 18.21-8.78a65 65 0 0 1 14.78-3.43c3.93-.53 8-.14 12 0 2.71.1 5.4.59 8.11.75 7.12.43 14.29.36 20.78 4.12a60.14 60.14 0 0 0 6.94 3.04Zm-79.5 33-.43.07c.46 2.81.43 5.82 1.48 8.38a104.72 104.72 0 0 0 6.72 13.18 12.05 12.05 0 0 0 4.34 4.2c4.69 2.65 9.52 5.08 14.4 7.35a16.75 16.75 0 0 0 6.32 1.66c6.14.2 12.12.45 18.23-2a70.64 70.64 0 0 0 17.51-10.08c5.93-4.67 8.93-10.72 10.57-17.62a24.53 24.53 0 0 0 .53-10.14c-.7-3.48-2.78-6.69-4.34-10a2.56 2.56 0 0 0-1.33-1.13c-2.46-1-4.92-2-7.46-2.81-8.57-2.62-17.4-1.86-26.18-2.05-6.17-.14-11.91 1.51-17.5 3.34-6.38 2.09-12.34 5.43-18.5 8.17-3.37 1.5-5.09 3.85-4.38 7.67a10 10 0 0 1 .02 1.81Zm-28.2 23-.4-.55c-4.82.61-9.31 2.06-13.05 5.44-1.35 1.23-2.69 2.47-4.13 3.59a42.25 42.25 0 0 0-11.89 14 38.85 38.85 0 0 0-3.24 8.43c-.65 2.59-.14 5.5-.94 8-2.19 6.88-1.57 14-2.25 21-.2 2.12.53 4.33.78 6.51.23 2 1 4.25.45 6a126.79 126.79 0 0 1-5.72 12.88c-1.38 2.87-3.35 5.49-4.47 8.44-1.33 3.51-.6 7.43 2.51 8.79a17.64 17.64 0 0 0 9.43 1.81c3.15-.39 5.7-1.85 8.5-2.93 5-2 10.07-3.62 15.41-5.5-.63-2.5-1.45-5.4-2.11-8.35-1.22-5.47-2.58-10.93-3.45-16.47-.9-5.75-1.21-11.6-1.89-17.39-.95-8.15-.57-16.13 2.61-23.81.7-1.68 1.28-3.42 2-5.08q5.07-11.07 10.23-22.09c.49-.94 1.09-1.79 1.62-2.68Zm11.72-42.23v2.86c-.45 7.75 1 15.27 2.73 22.76 2.48 10.92 6.9 20.71 16.3 27.54.06 0 .11.1.17.15 4.56 3.8 9.48 6.86 15.49 7.77 2.18.33 4.37.64 6.51 1.13 6.47 1.5 12.84 3.65 19.65 2.66 1.71-.25 3.6-.15 5.11-.86 4.86-2.26 9.59-4.81 14.35-7.28a11.49 11.49 0 0 0 2.05-1.44c7.31-6.15 13.44-13.17 16.76-22.35a18.53 18.53 0 0 0 .55-11.85c-.36 1.28-.28 2.67-.7 3.88-3.41 9.83-7.72 18.72-17.75 24-4 2.09-8 4.25-11.93 6.41-3.8 2.05-7.7 2.29-11.84 2.56-7.68.5-14.6-1.3-21.51-4.56-7.61-3.59-14.24-7.8-17.9-15.82-2.54-5.56-5.07-11-5.28-17.29-.21-6.42.82-12.92-1.17-19.25-.93-2.95-1.41-6.06-2.59-8.9a5.86 5.86 0 0 0-3.46-2.81c-3.78-1.13-5.66 3.52-4.5 7.33 1.07-.66 2-1.33 3.09-1.89a3.45 3.45 0 0 1 5.19 2.5 43.8 43.8 0 0 1 0 7.06c-.25 3.22-2 3.94-4.74 2.11a4.39 4.39 0 0 1-1.22-1c-1-1.53-1.97-3.15-3.36-5.38Zm65.51-169c.52.91 1.09 1.8 1.54 2.75 1.29 2.69 1 4-1.65 5.43a57.35 57.35 0 0 1-8.32 3.62c-3.74 1.24-6 .28-8.21-3-1.9-2.78-1.06-4.71 2.24-5.34 1.3-.24 2.55-.71 3.82-1.07-6-.7-20.35 6.3-21.14 9.84.41-.18.75-.28 1-.45 2.41-1.31 3.39-1.08 4.93 1.15 1.3 1.87 1.39 5.81-.32 7.43-3.09 2.93-6.49 5.54-9.83 8.35-1.54-1.77-2.64-3.12-3.85-4.37a1.88 1.88 0 0 1-.15-2.8c.64-.87 1.14-1.83 1.71-2.75l-.72-.39c-13.41 12.56-19.67 29-24.22 46.24-2.3 8.75-1.83 31.49.41 34.19a3.2 3.2 0 0 0 .35-.81c.48-3.84.88-7.69 1.41-11.52 1.65-11.74 5-22.91 11-33.2 3.92-6.68 7.68-13.42 12.87-19.3 4-4.53 7.91-9.19 13.37-11.86 4.86-2.38 9.22-5.93 14.79-6.8.36-.06.68-.36 1-.46 4.86-1.4 9.69-2.9 14.6-4.11a74.74 74.74 0 0 1 8.73-1.34c2.39-.3 4.81-.48 7.23-.61 1.38-.07 2.79.08 4.18.05a19.35 19.35 0 0 0 2.46-.35c-6.98-9.13-21.96-12.27-29.23-8.47Zm29.07 168.62c.49-2.74 1-4.92 1.24-7.13.09-.68-.13-1.87-.56-2.07-5.22-2.39-9.89-6.21-15.82-6.78-8.45-.82-16.93-1.37-25.4-2a9.17 9.17 0 0 0-2.47.36c-2 .42-4 1.07-6 1.3-10.31 1.13-19.13 6.11-28 10.9-1.49.8-3.63 1.76-2.16 4.33.15.25-.38.83-.38 1.25.05 2.63-.43 5.36 1.05 7.77 3-1.28 5.91-2.4 8.71-3.7 15.08-7 30.71-11 47.49-8.76 5.45.71 11.11.24 16.19 3a11.19 11.19 0 0 0 2.95 1.07 28.21 28.21 0 0 0 3.16.51Zm3.95.83c-3.72 3.4-1.74 6.74.75 10-.26-3.34-.51-6.78-.75-9.95Z"/><path d="M221.16 278.42c2.56 5.48 4.74 10.23 7 14.95a9.12 9.12 0 0 0 2 3.23c7.56 6.17 15.27 12.13 25.12 14.3 6.27 1.38 12.53 2.82 18.8 4.18a7.93 7.93 0 0 0 2.95.16c5.06-.83 10.2-1.13 14.81-3.95 5.69-3.49 11.89-6.17 16.46-11.27 2.59-2.89 5.13-5.82 7.7-8.72.3-.33.66-.61 1.2-1.12.56 1.18 1 2.23 1.55 3.27a161.26 161.26 0 0 1 10.47 26.83c2.29 8 4.17 16 5.8 24.13 1.06 5.29.66 10.65-.26 16.07-.64 3.77-2.37 6.66-3.91 9.92-1.84 3.9-2.43 8.42-3.37 12.72a63 63 0 0 0-1.47 9.44c-.3 4.75 0 9.53-.33 14.27a82 82 0 0 1-1.37 9.18 2.32 2.32 0 0 1-1 1.22c-2.65 1.88-5.33 3.72-8 5.57-1.64 1.13-3.17.68-4.63-.37-2.69-1.95-4.2-4.71-5.44-7.71-2.3-5.53-4.4-11.18-7.22-16.44-1.85-3.46-5.43-5.51-9.33-6.4-5.7-1.3-11.4-2.71-17.36-2.1a18.48 18.48 0 0 1-4.31-.33c-8-1.15-15.56.06-22.34 4.72a16 16 0 0 0-7.12 11.14 51.12 51.12 0 0 1-3.56 11.47c-2.19 5.21-11.57 8.94-16.77 6.86-3.77-1.51-5.93-4.47-7.28-8.27-2-5.52-2.47-11.23-2.94-17a91.26 91.26 0 0 0-1.53-11.91c-1.12-5.2-2.83-10.27-4.11-15.45a153.84 153.84 0 0 1-4.23-26c-.31-4.35-1-8.72-.8-13.06a44.8 44.8 0 0 1 1.94-10 59.53 59.53 0 0 1 3.59-10.7c3.61-7.4 7.59-14.62 11.52-21.85a65.62 65.62 0 0 1 4.14-6.25c.96-1.46 2.08-2.77 3.63-4.73Z" fill="#d5b466"/><path d="M317.09 231.47a60.14 60.14 0 0 1-7-3c-6.49-3.76-13.66-3.69-20.78-4.12-2.71-.16-5.4-.65-8.11-.75-4-.15-8.08-.54-12 0a65 65 0 0 0-14.78 3.43c-6.27 2.43-12.16 5.81-18.21 8.78-.33.17-.62.41-1 .64-2.33-1.89-3.15-4.43-3.51-7.19-.66-5-1.42-10.07-2-15.12-.6-5.35-1-10.72-1.52-16.08-.2-2.11-.55-4.22-.61-6.34-.27-10.12-.33-20.24 2.24-30.12 1.75-6.74 3.21-13.64 5.84-20a100.78 100.78 0 0 1 19.58-31.1C263.2 102.05 273.2 97 284 93.54c5.66-1.8 11.7-2.42 17.6-3.47 3.12-.55 6.31-1.35 9.42-1.19 4.29.2 9 .06 12 4.07 2.29 3 4.18 6.37 6.74 9.12 3.18 3.41 3.67 7.68 4.76 11.79a19.58 19.58 0 0 1 .24 3.85c.23 3.47.49 7 .71 10.43a16.22 16.22 0 0 1 .05 3.19c-.86 6.53-1.87 13-2.67 19.56-1.16 9.57-3.63 18.88-5.37 28.33a162.1 162.1 0 0 1-3.85 16.62c-3.12 10.6-4.26 21.54-6.26 32.33-.13.88-.14 1.83-.28 3.3Zm-7.65-123.56c0-3.64-1.18-5.26-3.75-4.74a6.44 6.44 0 0 0-2.87 2 4.36 4.36 0 0 0-.63 5.62c.9 1.24 1.94 2.33 3.79 1.78 3.02-.91 3.47-1.52 3.46-4.66ZM274 115a21.57 21.57 0 0 0 0 2.3c.27 2.21 2.72 4.08 4 2.9a13.37 13.37 0 0 0 3.19-5 4.55 4.55 0 0 0-.63-3.35c-1-1.81-3-1.47-4.49-1.07-2.07.64-2.34 2.55-2.07 4.22Zm-27.65 71.77a4.35 4.35 0 0 0 4.32-4.28c0-1.53-2.27-3.3-4.28-3.33a3.52 3.52 0 0 0-3.8 3.85c.03 2.46 1.41 3.8 3.77 3.78Zm16-51.31c0-2.82-1.17-4.62-3-4.62-1.55 0-4.38 2.84-4.39 4.41a4.7 4.7 0 0 0 4.39 4.35c1.76-.04 3-1.75 3-4.12Zm33.25-5c.09 3.15 1.14 4.69 3.15 4.6 2.55-.1 4.25-1.75 4.19-4.06-.06-2-2.59-4.49-4.41-4.4s-2.99 1.69-2.93 3.91Zm-2.45 60.39c3.35 0 5.57-1.17 5.55-3.09 0-2.13-2-4.44-3.77-4.47s-4.24 2.68-4.2 4.94c.02 1.55.46 2.77 2.42 2.67Zm-42.92-34.57a3.38 3.38 0 0 0-3.12 3.6c0 1.83 1.7 4.59 2.87 4.66 1.34.07 4-2 4-3.14.11-2.4-1.85-5.06-3.75-5.07ZM324 130.13c0-2.47-1-3.55-3.35-3.47-1.56 0-3.41.19-3.68 2.07-.34 2.43 2.05 5.47 4 5.57 1.15.06 3.03-2.46 3.03-4.17Zm-45.7 15.58c0 2.14 1.23 4.44 2.42 4.5 1.71.09 4.12-2.26 4-4-.08-1.95-1.77-4.2-3.19-4.23a3.46 3.46 0 0 0-3.23 3.73ZM299 159a11.56 11.56 0 0 1-1.86.35c-1.41 0-2.5.6-2.51 2a4.68 4.68 0 0 0 1.19 2.55 13.61 13.61 0 0 0 2.3 2.18c.38.3 1.05.68 1.36.54 1.47-.67 2.51-1.76 2.16-3.54s-.77-3.51-2.64-4.08Zm14.6-14c-.84.75-2 1.34-2.45 2.26-.72 1.35-1.57 3-.13 4.42 1 1 2 2.9 3.63 1.36a7.87 7.87 0 0 0 2-4.17c.29-1.94-1.13-3.48-3.05-3.87Zm1 29.18c2 0 3.73-1.19 3.74-2.5 0-2.92-1.4-4.34-4.26-4.28a3.27 3.27 0 0 0-3 3.4 3.86 3.86 0 0 0 3.5 3.35Zm-37.14-3.48c0-2.34-1.47-4.07-3.2-4-1.15 0-3.14 2.71-3.19 4.33 0 1.28 2 2.62 3.9 2.7 2.43.02 2.67-1.47 2.47-3.06Z" fill="#d5b366"/><path class="cls-6" d="M237.59 264.44a10 10 0 0 0 0-1.82c-.71-3.82 1-6.17 4.38-7.67 6.16-2.74 12.12-6.08 18.5-8.17 5.59-1.83 11.33-3.48 17.5-3.34 8.78.19 17.61-.57 26.18 2.05 2.54.78 5 1.82 7.46 2.81a2.56 2.56 0 0 1 1.33 1.13c1.56 3.28 3.64 6.49 4.34 10a24.53 24.53 0 0 1-.53 10.14c-1.64 6.9-4.64 12.95-10.57 17.62a70.64 70.64 0 0 1-17.51 10.08c-6.11 2.49-12.09 2.24-18.23 2a16.75 16.75 0 0 1-6.32-1.66c-4.88-2.27-9.71-4.7-14.4-7.35a12.05 12.05 0 0 1-4.34-4.2 104.72 104.72 0 0 1-6.72-13.18c-1-2.56-1-5.57-1.48-8.38Zm48.59 24.2c2.17-2.25 2.08-2.49 0-4.2a15.71 15.71 0 0 1-2.33-2.94c-1.3-1.73.76-2.23 1.15-3.33a12.06 12.06 0 0 0 .16-3.62c-.88 0-1.76-.06-2.63 0-2.17.11-4.34.23-6.5.41-.79.07-2.19.23-2.23.52a5.75 5.75 0 0 0 .36 3A15.93 15.93 0 0 0 276 281c.92 1.31.91 2.39-.63 3.38s-2.95 2.26-4.63 3.57c5.21 3.38 7-1.67 10.08-3.43Zm17.16-31a31.74 31.74 0 0 0-5.61.68c-2.72.81-5.59 1.45-7.51 3.92-1.33 1.72-1.71 4.08-.7 5.15a4.26 4.26 0 0 0 6.29.09 17.07 17.07 0 0 1 9.39-4.78c1.6-.23 2.08-1.17 2-2.74-.2-2.69-2.1-2.29-3.86-2.31Zm-36.89 9.66c1-.58 2.7-1 3-1.84 1-3.29-2.11-6.92-5.57-6.88a16.35 16.35 0 0 1-2.7-.26c-2.2-.35-4.39-.94-6.61-1.07-2.9-.19-3.69 1.25-2.13 3.74a5.48 5.48 0 0 0 2.28 1.71c2.4 1.13 4.84 2.18 7.3 3.17 1.27.53 2.64.87 4.43 1.44ZM209.39 287.48c-.53.89-1.13 1.74-1.57 2.68q-5.15 11-10.23 22.09c-.76 1.66-1.34 3.4-2 5.08-3.22 7.67-3.59 15.67-2.65 23.81.68 5.79 1 11.64 1.89 17.39.87 5.54 2.23 11 3.45 16.47.66 2.95 1.48 5.85 2.11 8.35-5.34 1.88-10.43 3.55-15.41 5.5-2.8 1.08-5.35 2.54-8.5 2.93a17.64 17.64 0 0 1-9.43-1.81c-3.11-1.36-3.84-5.28-2.51-8.79 1.12-2.95 3.09-5.57 4.47-8.44a126.79 126.79 0 0 0 5.71-12.86c.6-1.74-.22-4-.45-6-.25-2.18-1-4.39-.78-6.51.68-7 .06-14.13 2.25-21 .8-2.52.29-5.43.94-8a38.85 38.85 0 0 1 3.24-8.43 42.25 42.25 0 0 1 11.89-14c1.44-1.12 2.78-2.36 4.13-3.59 3.74-3.38 8.23-4.83 13.05-5.44Z"/><path d="M221.11 245.25c1.39 2.23 2.36 3.85 3.4 5.41a4.39 4.39 0 0 0 1.22 1c2.73 1.83 4.49 1.11 4.74-2.11a43.8 43.8 0 0 0 0-7.06 3.45 3.45 0 0 0-5.19-2.5c-1 .56-2 1.23-3.09 1.89-1.16-3.81.72-8.46 4.5-7.33a5.86 5.86 0 0 1 3.46 2.81c1.18 2.84 1.66 6 2.59 8.9 2 6.33 1 12.83 1.17 19.25.21 6.27 2.74 11.73 5.28 17.29 3.66 8 10.29 12.23 17.9 15.82 6.91 3.26 13.83 5.06 21.51 4.56 4.14-.27 8-.51 11.84-2.56 4-2.16 8-4.32 11.93-6.41 10-5.3 14.34-14.19 17.75-24 .42-1.21.34-2.6.7-3.88a18.53 18.53 0 0 1-.55 11.85c-3.32 9.18-9.45 16.2-16.76 22.35a11.49 11.49 0 0 1-2.05 1.44c-4.76 2.47-9.49 5-14.35 7.28-1.51.71-3.4.61-5.11.86-6.81 1-13.18-1.16-19.65-2.66-2.14-.49-4.33-.8-6.51-1.13-6-.91-10.93-4-15.49-7.77-.06-.05-.11-.11-.17-.15-9.4-6.83-13.82-16.62-16.3-27.54-1.7-7.49-3.18-15-2.73-22.76 0-.73-.04-1.47-.04-2.85Z" fill="#d1b065"/><path d="M286.62 76.26c7.27-3.8 22.25-.66 29.36 8.57a19.35 19.35 0 0 1-2.46.35c-1.39 0-2.8-.12-4.18-.05-2.42.13-4.84.31-7.23.61a74.74 74.74 0 0 0-8.73 1.34c-4.91 1.21-9.74 2.71-14.6 4.11-.36.1-.68.4-1 .46-5.57.87-9.93 4.42-14.79 6.8-5.46 2.67-9.37 7.33-13.37 11.86-5.19 5.88-9 12.62-12.87 19.3-6 10.29-9.39 21.46-11 33.2-.53 3.83-.93 7.68-1.41 11.52a3.2 3.2 0 0 1-.35.81c-2.24-2.7-2.71-25.44-.41-34.19 4.55-17.26 10.81-33.68 24.22-46.24l.72.39c-.57.92-1.07 1.88-1.71 2.75a1.88 1.88 0 0 0 .15 2.8c1.21 1.25 2.31 2.6 3.85 4.37 3.34-2.81 6.74-5.42 9.83-8.35 1.71-1.62 1.62-5.56.32-7.43-1.54-2.23-2.52-2.46-4.93-1.15-.3.17-.64.27-1 .45C255.69 85 270.05 78 276 78.7c-1.27.36-2.52.83-3.82 1.07-3.3.63-4.14 2.56-2.24 5.34 2.2 3.23 4.47 4.19 8.21 3a57.35 57.35 0 0 0 8.32-3.62c2.64-1.39 2.94-2.74 1.65-5.43-.41-1-.98-1.89-1.5-2.8Zm-51.07 48.24c1.8.22 2.76-.91 3.57-2.44 1-2 2.09-3.87 3.29-5.71 1.54-2.39 1.41-4.81-.49-6-1.74-1.1-5.44.22-6.39 2.3-1 2.26-2.09 4.53-3.05 6.83-1.07 2.52.42 5 3.07 5.02Z" fill="#cfaf64"/><path d="M315.69 244.88a28.21 28.21 0 0 1-3.17-.43 11.19 11.19 0 0 1-2.95-1.07c-5.08-2.78-10.74-2.31-16.19-3-16.78-2.19-32.41 1.77-47.49 8.76-2.8 1.3-5.69 2.42-8.71 3.7-1.48-2.41-1-5.14-1.05-7.77 0-.42.53-1 .38-1.25-1.47-2.57.67-3.53 2.16-4.33 8.87-4.79 17.69-9.77 28-10.9 2-.23 4-.88 6-1.3a9.17 9.17 0 0 1 2.47-.36c8.47.62 17 1.17 25.4 2 5.93.57 10.6 4.39 15.82 6.78.43.2.65 1.39.56 2.07-.27 2.22-.74 4.36-1.23 7.1Z" fill="#d3b265"/><path d="M319.64 245.71c.24 3.17.49 6.61.75 10-2.49-3.26-4.47-6.6-.75-10Z" fill="#c0a25e"/><path class="cls-11" d="M309.44 107.91c0 3.14-.49 3.75-3.46 4.63-1.85.55-2.89-.54-3.79-1.78a4.36 4.36 0 0 1 .63-5.62 6.44 6.44 0 0 1 2.87-2c2.57-.49 3.75 1.13 3.75 4.77ZM274 115c-.28-1.69 0-3.6 2.11-4.17 1.5-.4 3.49-.74 4.49 1.07a4.55 4.55 0 0 1 .63 3.35 13.37 13.37 0 0 1-3.19 5c-1.31 1.18-3.76-.69-4-2.9A21.57 21.57 0 0 1 274 115Z"/><path class="cls-12" d="M246.36 186.79c-2.4 0-3.74-1.32-3.76-3.76a3.52 3.52 0 0 1 3.8-3.85c2 0 4.28 1.8 4.28 3.33a4.35 4.35 0 0 1-4.32 4.28Z"/><path class="cls-13" d="M262.35 135.48c0 2.37-1.24 4.08-3 4.14a4.7 4.7 0 0 1-4.39-4.35c0-1.57 2.84-4.41 4.39-4.41 1.83 0 3 1.8 3 4.62ZM295.6 130.51c-.06-2.22 1.12-3.77 2.93-3.86s4.35 2.45 4.41 4.4c.06 2.31-1.64 4-4.19 4.06-2.01.09-3.06-1.45-3.15-4.6Z"/><path class="cls-12" d="M293.15 190.9c-2 .11-2.4-1.12-2.42-2.62 0-2.26 2.31-5 4.2-4.94s3.75 2.34 3.77 4.47c.02 1.92-2.2 3.13-5.55 3.09Z"/><path class="cls-13" d="M250.23 156.33c1.9 0 3.86 2.66 3.79 5.12 0 1.14-2.7 3.21-4 3.14-1.17-.07-2.87-2.83-2.87-4.66a3.38 3.38 0 0 1 3.08-3.6Z"/><path class="cls-3" d="M324 130.13c0 1.71-1.86 4.23-3.07 4.17-1.91-.1-4.3-3.14-4-5.57.27-1.88 2.12-2 3.68-2.07 2.39-.08 3.39 1 3.39 3.47Z"/><path class="cls-14" d="M278.3 145.71a3.46 3.46 0 0 1 3.28-3.68c1.42 0 3.11 2.28 3.19 4.23.07 1.69-2.34 4-4 4-1.24-.11-2.48-2.41-2.47-4.55ZM299 159c1.86.54 2.29 2.3 2.64 4.08s-.69 2.87-2.16 3.54c-.31.14-1-.24-1.36-.54a13.61 13.61 0 0 1-2.3-2.18 4.68 4.68 0 0 1-1.19-2.55c0-1.4 1.1-2 2.51-2A11.56 11.56 0 0 0 299 159ZM313.6 145c1.92.42 3.34 2 3 3.87a7.87 7.87 0 0 1-2 4.17c-1.61 1.54-2.65-.39-3.63-1.36-1.44-1.43-.59-3.07.13-4.42.55-.95 1.66-1.54 2.5-2.26Z"/><path d="M314.58 174.15a3.86 3.86 0 0 1-3.49-3.38 3.27 3.27 0 0 1 3-3.4c2.86-.06 4.27 1.36 4.26 4.28-.04 1.35-1.81 2.5-3.77 2.5Z" fill="#2f2d29"/><path class="cls-14" d="M277.44 170.67c.2 1.59 0 3.08-2.49 3-1.93-.08-3.94-1.42-3.9-2.7.05-1.62 2-4.32 3.19-4.33 1.76-.04 3.2 1.69 3.2 4.03Z"/><path d="m286.18 288.64-5.33-4.09c-3.06 1.76-4.87 6.81-10.08 3.43 1.68-1.31 3.07-2.57 4.63-3.57s1.55-2.07.63-3.38a15.93 15.93 0 0 1-1.9-2.53 5.75 5.75 0 0 1-.36-3c0-.29 1.44-.45 2.23-.52 2.16-.18 4.33-.3 6.5-.41h2.63a12.06 12.06 0 0 1-.16 3.62c-.39 1.1-2.45 1.6-1.15 3.33a15.71 15.71 0 0 0 2.33 2.94c2.11 1.69 2.2 1.93.03 4.18Z" fill="#2d2b28"/><path class="cls-11" d="M303.34 257.65c1.76 0 3.67-.38 3.84 2.32.1 1.57-.38 2.51-2 2.74a17.07 17.07 0 0 0-9.39 4.78 4.26 4.26 0 0 1-6.29-.09c-1-1.07-.63-3.43.7-5.15 1.92-2.47 4.79-3.11 7.51-3.92a31.74 31.74 0 0 1 5.63-.68Z"/><path d="M266.45 267.31c-1.79-.57-3.16-.91-4.47-1.43-2.46-1-4.9-2-7.3-3.17a5.48 5.48 0 0 1-2.28-1.71c-1.56-2.49-.77-3.93 2.13-3.74 2.22.13 4.41.72 6.61 1.07a16.35 16.35 0 0 0 2.7.26c3.46 0 6.6 3.59 5.57 6.88-.26.85-1.97 1.26-2.96 1.84Z" fill="#2b2927"/><path d="M235.55 124.5c-2.65 0-4.14-2.49-3.07-5 1-2.3 2-4.57 3.05-6.83.95-2.08 4.65-3.4 6.39-2.3 1.9 1.2 2 3.62.49 6-1.2 1.84-2.27 3.76-3.29 5.71-.81 1.51-1.77 2.64-3.57 2.42Z" fill="#2c2a27"/></svg>